<svg width="37" height="42" viewBox="0 0 37 42" fill="none" xmlns="http://www.w3.org/2000/svg">
<path d="M21.68 35.456C23.3787 35.456 24.8533 35.3067 26.104 35.008C27.3733 34.6907 28.5773 34.2613 29.716 33.72V26.356H24.648C24.1627 26.356 23.78 26.2253 23.5 25.964C23.22 25.684 23.08 25.348 23.08 24.956V20.7H36.548V37.08C35.5213 37.8267 34.448 38.48 33.328 39.04C32.2267 39.5813 31.0413 40.0293 29.772 40.384C28.5213 40.7387 27.1773 41 25.74 41.168C24.3027 41.3547 22.7533 41.448 21.092 41.448C18.1427 41.448 15.4267 40.9347 12.944 39.908C10.4613 38.8813 8.31467 37.4533 6.504 35.624C4.69333 33.7947 3.27467 31.6107 2.248 29.072C1.24 26.5333 0.736 23.7613 0.736 20.756C0.736 17.7133 1.23067 14.9227 2.22 12.384C3.20933 9.84533 4.60933 7.66133 6.42 5.832C8.24933 4.00266 10.4613 2.584 13.056 1.576C15.6507 0.567999 18.5627 0.0639997 21.792 0.0639997C25.096 0.0639997 27.952 0.558666 30.36 1.548C32.7867 2.51866 34.84 3.788 36.52 5.356L34.336 8.772C33.9067 9.46266 33.3373 9.808 32.628 9.808C32.18 9.808 31.7227 9.65867 31.256 9.36C30.6587 9.00533 30.0427 8.65066 29.408 8.296C28.792 7.94133 28.1013 7.63333 27.336 7.372C26.5893 7.11067 25.74 6.896 24.788 6.728C23.8547 6.56 22.772 6.476 21.54 6.476C19.5427 6.476 17.732 6.812 16.108 7.484C14.5027 8.156 13.1307 9.11733 11.992 10.368C10.8533 11.6187 9.976 13.1213 9.36 14.876C8.744 16.6307 8.436 18.5907 8.436 20.756C8.436 23.0893 8.76267 25.1707 9.416 27C10.0693 28.8107 10.984 30.3413 12.16 31.592C13.336 32.8427 14.736 33.804 16.36 34.476C17.984 35.1293 19.7573 35.456 21.68 35.456Z" fill="black"/>
</svg>
