<svg width="32" height="32" viewBox="0 0 32 32" fill="none" xmlns="http://www.w3.org/2000/svg">
<rect width="32" height="32" rx="8" fill="#F7F7F5"/>
<path d="M20.6254 18.7498C20.2616 18.7499 19.9027 18.8336 19.5764 18.9946C19.2502 19.1555 18.9653 19.3893 18.7439 19.6779L13.6213 16.7706C13.7934 16.2712 13.7934 15.7285 13.6213 15.2291L18.7439 12.3217C19.1015 12.7856 19.618 13.1009 20.194 13.2069C20.7701 13.3129 21.365 13.2021 21.8642 12.8958C22.3635 12.5896 22.7319 12.1095 22.8985 11.5479C23.065 10.9864 23.0181 10.3831 22.7666 9.85412C22.5151 9.32514 22.0768 8.90785 21.5362 8.68256C20.9955 8.45727 20.3906 8.43989 19.8379 8.63377C19.2852 8.82765 18.8238 9.21908 18.5423 9.73275C18.2609 10.2464 18.1793 10.846 18.3134 11.4162L13.1035 14.3731C12.7775 14.0263 12.3548 13.7855 11.8902 13.6818C11.4257 13.5782 10.9407 13.6165 10.4982 13.7918C10.0557 13.9672 9.67605 14.2714 9.40856 14.6651C9.14107 15.0588 8.99805 15.5238 8.99805 15.9998C8.99805 16.4758 9.14107 16.9408 9.40856 17.3345C9.67605 17.7282 10.0557 18.0325 10.4982 18.2078C10.9407 18.3832 11.4257 18.4215 11.8902 18.3178C12.3548 18.2142 12.7775 17.9733 13.1035 17.6265L18.3134 20.5835C18.2011 21.0635 18.2409 21.5665 18.4274 22.0228C18.6139 22.4792 18.9378 22.8662 19.3541 23.1301C19.7704 23.3941 20.2586 23.5219 20.7508 23.496C21.2431 23.47 21.7151 23.2914 22.1013 22.9851C22.4876 22.6788 22.7689 22.2599 22.9063 21.7864C23.0437 21.313 23.0304 20.8086 22.8681 20.3431C22.7059 19.8776 22.4028 19.4741 22.001 19.1886C21.5991 18.9031 21.1183 18.7498 20.6254 18.7498ZM20.6254 9.49982C20.8973 9.49982 21.1632 9.58047 21.3893 9.73155C21.6154 9.88264 21.7917 10.0974 21.8957 10.3486C21.9998 10.5999 22.027 10.8763 21.974 11.1431C21.9209 11.4098 21.79 11.6548 21.5977 11.8471C21.4054 12.0394 21.1604 12.1703 20.8936 12.2234C20.6269 12.2765 20.3504 12.2492 20.0992 12.1452C19.8479 12.0411 19.6332 11.8649 19.4821 11.6387C19.331 11.4126 19.2504 11.1468 19.2504 10.8748C19.2508 10.5103 19.3958 10.1608 19.6536 9.903C19.9113 9.64523 20.2608 9.50023 20.6254 9.49982ZM11.3754 17.3748C11.1034 17.3748 10.8376 17.2942 10.6115 17.1431C10.3854 16.992 10.2091 16.7773 10.1051 16.526C10.001 16.2748 9.97375 15.9983 10.0268 15.7316C10.0799 15.4649 10.2108 15.2198 10.4031 15.0276C10.5954 14.8353 10.8404 14.7043 11.1071 14.6512C11.3739 14.5982 11.6503 14.6254 11.9016 14.7295C12.1528 14.8336 12.3676 15.0098 12.5187 15.2359C12.6697 15.462 12.7504 15.7279 12.7504 15.9998C12.75 16.3644 12.605 16.7139 12.3472 16.9716C12.0894 17.2294 11.7399 17.3744 11.3754 17.3748ZM20.6254 22.4998C20.3534 22.4998 20.0876 22.4192 19.8615 22.2681C19.6354 22.117 19.4591 21.9023 19.3551 21.651C19.251 21.3998 19.2238 21.1233 19.2768 20.8566C19.3299 20.5899 19.4608 20.3448 19.6531 20.1526C19.8454 19.9603 20.0904 19.8293 20.3571 19.7762C20.6239 19.7232 20.9003 19.7504 21.1516 19.8545C21.4028 19.9586 21.6176 20.1348 21.7687 20.3609C21.9197 20.587 22.0004 20.8529 22.0004 21.1248C22 21.4894 21.855 21.8389 21.5972 22.0966C21.3394 22.3544 20.9899 22.4994 20.6254 22.4998Z" fill="black"/>
</svg>
